# Blender 4.0.1
# www.blender.org
mtllib building6.mtl
o Cube.004
v -6.184525 0.000000 3.734375
v -6.184525 7.305773 3.734375
v -6.184525 0.000000 -3.734375
v -6.184525 7.305773 -3.734375
v 6.184525 0.000000 3.734375
v 3.544722 4.873070 3.476274
v 6.184525 7.305773 3.734375
v 3.544722 5.310002 3.476274
v 6.184525 0.000000 -3.734375
v 2.204099 4.873070 3.476274
v 6.184525 7.305773 -3.734375
v 2.204099 5.310002 3.476274
v 5.315373 4.873070 3.476274
v 5.315373 5.310002 3.476274
v 3.974751 4.873070 3.476274
v 3.974751 5.310002 3.476274
v 3.544722 5.672148 3.476274
v 3.544722 6.109079 3.476274
v 2.204099 5.672148 3.476274
v 2.204099 6.109079 3.476274
v 5.297898 5.651218 3.476274
v 5.297898 6.088150 3.476274
v 3.957275 5.651218 3.476274
v 3.957275 6.088150 3.476274
v 2.204099 4.873070 3.734375
v 2.204099 5.310002 3.734375
v 2.204099 5.672148 3.734375
v 2.204099 6.109079 3.734375
v 3.544722 4.873070 3.734375
v 3.544722 5.310002 3.734375
v 3.544722 5.672148 3.734375
v 3.544722 6.109079 3.734375
v 3.974751 5.310002 3.734375
v 3.974751 4.873070 3.734375
v 3.957275 5.651218 3.734375
v 3.957275 6.088150 3.734375
v 5.315373 4.873070 3.734375
v 5.315373 5.310002 3.734375
v 5.297898 5.651218 3.734375
v 5.297898 6.088150 3.734375
vn -1.0000 -0.0000 -0.0000
vn -0.0000 -0.0000 -1.0000
vn 1.0000 -0.0000 -0.0000
vn -0.0000 -0.0000 1.0000
vn -0.0000 -1.0000 -0.0000
vn -0.0000 1.0000 -0.0000
vt 0.375000 0.000000
vt 0.625000 0.000000
vt 0.625000 0.250000
vt 0.375000 0.250000
vt 0.625000 0.500000
vt 0.375000 0.500000
vt 0.625000 0.750000
vt 0.375000 0.750000
vt 0.556706 0.803355
vt 0.569098 0.803355
vt 0.569098 0.830451
vt 0.556706 0.830451
vt 0.541754 0.767567
vt 0.583334 0.767920
vt 0.568382 0.767920
vt 0.556706 0.767567
vt 0.568382 0.795017
vt 0.541754 0.803355
vt 0.541754 0.830451
vt 0.584050 0.830451
vt 0.584050 0.803355
vt 0.583333 0.795017
vt 0.625000 1.000000
vt 0.375000 1.000000
vt 0.541754 0.794663
vt 0.556706 0.794663
vt 0.125000 0.500000
vt 0.125000 0.750000
vt 0.875000 0.500000
vt 0.875000 0.750000
vt 0.295606 0.750000
vt 0.295606 0.500000
vt 0.704394 0.500000
vt 0.704394 0.750000
s 0
f 1/1/1 2/2/1 4/3/1 3/4/1
f 3/4/2 4/3/2 11/5/2 9/6/2
f 9/6/3 11/5/3 7/7/3 5/8/3
f 30/9/4 31/10/4 27/11/4 26/12/4
f 37/13/4 5/8/4 7/7/4 40/14/4 39/15/4 38/16/4
f 35/17/4 31/10/4 30/9/4 29/18/4 25/19/4 26/12/4 27/11/4 28/20/4 32/21/4 36/22/4 40/14/4 7/7/4 2/23/4 1/24/4 5/8/4 37/13/4 34/25/4 33/26/4 38/16/4 39/15/4
f 36/22/4 32/21/4 31/10/4 35/17/4
f 3/27/5 9/6/5 5/8/5 1/28/5
f 11/5/6 4/29/6 2/30/6 7/7/6
f 10/6/3 12/3/3 26/3/3 25/6/3
f 10/8/4 6/8/4 8/5/4 12/5/4
f 8/7/1 6/24/1 29/24/1 30/7/1
f 29/31/6 6/8/6 10/6/6 25/32/6
f 26/33/5 12/5/5 8/7/5 30/34/5
f 15/6/3 16/3/3 33/3/3 34/6/3
f 15/8/4 13/8/4 14/5/4 16/5/4
f 14/7/1 13/24/1 37/24/1 38/7/1
f 37/31/6 13/8/6 15/6/6 34/32/6
f 33/33/5 16/5/5 14/7/5 38/34/5
f 19/6/3 20/3/3 28/3/3 27/6/3
f 19/8/4 17/8/4 18/5/4 20/5/4
f 18/7/1 17/24/1 31/24/1 32/7/1
f 31/31/6 17/8/6 19/6/6 27/32/6
f 28/33/5 20/5/5 18/7/5 32/34/5
f 23/6/3 24/3/3 36/3/3 35/6/3
f 23/8/4 21/8/4 22/5/4 24/5/4
f 22/7/1 21/24/1 39/24/1 40/7/1
f 39/31/6 21/8/6 23/6/6 35/32/6
f 36/33/5 24/5/5 22/7/5 40/34/5
