# Blender 4.0.1
# www.blender.org
mtllib building3.mtl
o Cube.003
v -3.185138 0.000001 4.671327
v 2.766652 1.296761 2.385625
v 2.766652 1.733693 2.385625
v 2.766652 1.296761 -2.910571
v -3.185138 3.128397 4.671327
v 2.766652 1.296761 1.045002
v 2.766652 1.733693 -2.910571
v 2.766652 1.733693 1.045002
v -3.185138 0.000001 -4.671327
v 2.766652 1.296761 -4.251194
v -3.185138 3.128397 -4.671327
v 2.766652 1.733693 -4.251194
v 2.766652 1.296761 4.156277
v 3.185138 0.000001 4.671327
v 2.766652 1.733693 4.156277
v 3.185138 3.128397 4.671327
v 3.185138 0.000001 -4.671327
v 2.766652 1.296761 2.815654
v 3.185138 3.128397 -4.671327
v 2.766652 1.733693 2.815654
v 2.766652 1.296761 -1.139919
v 2.766652 1.733693 -1.139919
v 2.766652 1.296761 -2.480542
v 2.766652 1.733693 -2.480542
v 2.766652 2.095839 2.385625
v 2.766652 2.095839 -2.910571
v 2.766652 2.532771 2.385625
v 2.766652 2.532771 -2.910571
v 2.766652 2.095839 1.045002
v 2.766652 2.095839 -4.251194
v 2.766652 2.532771 1.045002
v 2.766652 2.532771 -4.251194
v 2.766652 2.074909 -1.157395
v 2.766652 2.511841 -1.157395
v 2.766652 2.074909 -2.498018
v 2.766652 2.511841 -2.498018
v 3.185138 1.296761 -1.139919
v 2.766652 2.074909 4.138802
v 3.185138 1.733693 -1.139919
v 2.766652 2.511841 4.138802
v 3.185138 2.074909 -1.157395
v 2.766652 2.074909 2.798178
v 3.185138 2.511841 -1.157395
v 2.766652 2.511841 2.798178
v 3.185138 1.733693 -2.480542
v 3.185138 2.074909 -2.498018
v 3.185138 2.299893 -2.498018
v 3.185138 2.511841 -2.498018
v 3.185138 1.296761 -2.480542
v 3.185138 1.296761 -2.910571
v 3.185138 1.733693 -2.910571
v 3.185138 2.095839 -2.910571
v 3.185138 2.307787 -2.910571
v 3.185138 2.095839 -4.251194
v 3.185138 2.532771 -4.251194
v 3.185138 1.296761 -4.251194
v 3.185138 1.733693 -4.251194
v 3.185138 2.532771 -2.910571
v 3.185138 1.296761 4.156277
v 3.185138 1.733693 4.156277
v 3.185138 2.074909 4.138802
v 3.185138 2.511841 4.138802
v 3.185138 1.296761 2.815654
v 3.185138 1.733693 2.815654
v 3.185138 1.733693 2.385625
v 3.185138 2.095839 2.385625
v 3.185138 2.074909 2.798178
v 3.185138 2.299893 2.798178
v 3.185138 2.307787 2.385625
v 3.185138 1.733693 1.045002
v 3.185138 1.296761 1.045002
v 3.185138 1.733693 1.695316
v 3.185138 2.095839 1.735312
v 3.185138 1.296761 2.385625
v 3.185138 2.511841 2.798178
v 3.185138 2.532771 2.385625
v 3.185138 2.095839 1.045002
v 3.185138 2.532771 1.045002
vn -1.0000 -0.0000 -0.0000
vn -0.0000 -0.0000 -1.0000
vn 1.0000 -0.0000 -0.0000
vn -0.0000 -0.0000 1.0000
vn -0.0000 -1.0000 -0.0000
vn -0.0000 1.0000 -0.0000
vt 0.375000 0.000000
vt 0.625000 0.000000
vt 0.625000 0.250000
vt 0.375000 0.250000
vt 0.625000 0.500000
vt 0.375000 0.500000
vt 0.540812 0.594029
vt 0.513545 0.594497
vt 0.513545 0.558623
vt 0.540812 0.558156
vt 0.513545 0.511242
vt 0.478628 0.511242
vt 0.577402 0.511242
vt 0.542485 0.511242
vt 0.542485 0.547116
vt 0.513545 0.547116
vt 0.575729 0.735750
vt 0.625000 0.750000
vt 0.375000 0.750000
vt 0.478628 0.736218
vt 0.513545 0.736218
vt 0.540812 0.735750
vt 0.513545 0.700344
vt 0.478628 0.700344
vt 0.478628 0.547116
vt 0.559423 0.547116
vt 0.558792 0.558156
vt 0.478628 0.558623
vt 0.478628 0.594497
vt 0.575729 0.594029
vt 0.575729 0.558156
vt 0.577402 0.547116
vt 0.575729 0.699876
vt 0.558792 0.699876
vt 0.559422 0.688837
vt 0.577402 0.688837
vt 0.577402 0.652963
vt 0.542485 0.652963
vt 0.542485 0.671435
vt 0.513545 0.670365
vt 0.513545 0.652963
vt 0.478628 0.652963
vt 0.478628 0.688837
vt 0.513545 0.688837
vt 0.542485 0.688837
vt 0.540813 0.699876
vt 0.625000 1.000000
vt 0.375000 1.000000
vt 0.125000 0.500000
vt 0.125000 0.750000
vt 0.875000 0.500000
vt 0.875000 0.750000
vt 0.625000 0.378729
vt 0.375000 0.378729
vt 0.375000 0.871271
vt 0.625000 0.871271
vt 0.253729 0.750000
vt 0.253729 0.500000
vt 0.746271 0.500000
vt 0.746271 0.750000
vt 0.496271 0.871271
vt 0.503729 0.378729
vt 0.746271 0.621271
vt 0.253729 0.628729
s 0
f 1/1/1 5/2/1 11/3/1 9/4/1
f 9/4/2 11/3/2 19/5/2 17/6/2
f 41/7/3 39/8/3 45/9/3 46/10/3
f 57/11/3 56/12/3 17/6/3 19/5/3 55/13/3 54/14/3 52/15/3 51/16/3
f 62/17/3 16/18/3 14/19/3 59/20/3 60/21/3 61/22/3
f 61/22/3 60/21/3 64/23/3 63/24/3 59/20/3 14/19/3 17/6/3 56/12/3 50/25/3 51/16/3 52/15/3 53/26/3 47/27/3 46/10/3 45/9/3 49/28/3 37/29/3 39/8/3 41/7/3 43/30/3 48/31/3 58/32/3 55/13/3 19/5/3 16/18/3 62/17/3 75/33/3 68/34/3 69/35/3 76/36/3 78/37/3 77/38/3 73/39/3 72/40/3 70/41/3 71/42/3 74/43/3 65/44/3 66/45/3 67/46/3
f 68/34/3 67/46/3 66/45/3 69/35/3
f 66/45/3 65/44/3 72/40/3 73/39/3
f 53/26/3 58/32/3 48/31/3 47/27/3
f 14/19/4 16/18/4 5/47/4 1/48/4
f 9/49/5 17/6/5 14/19/5 1/50/5
f 19/5/6 11/51/6 5/52/6 16/18/6
f 4/1/3 10/4/3 12/3/3 7/2/3
f 57/53/4 12/3/4 10/4/4 56/54/4
f 50/55/2 4/48/2 7/47/2 51/56/2
f 10/49/6 4/50/6 50/57/6 56/58/6
f 7/52/5 12/51/5 57/59/5 51/60/5
f 21/1/3 23/4/3 24/3/3 22/2/3
f 45/53/4 24/3/4 23/4/4 49/54/4
f 37/55/2 21/48/2 22/47/2 39/56/2
f 23/49/6 21/50/6 37/57/6 49/58/6
f 22/52/5 24/51/5 45/59/5 39/60/5
f 26/1/3 30/4/3 32/3/3 28/2/3
f 55/53/4 32/3/4 30/4/4 54/54/4
f 53/61/2 52/55/2 26/48/2 28/47/2 58/56/2
f 30/49/6 26/50/6 52/57/6 54/58/6
f 28/52/5 32/51/5 55/59/5 58/60/5
f 33/1/3 35/4/3 36/3/3 34/2/3
f 47/62/4 48/53/4 36/3/4 35/4/4 46/54/4
f 41/55/2 33/48/2 34/47/2 43/56/2
f 35/49/6 33/50/6 41/57/6 46/58/6
f 34/52/5 36/51/5 48/59/5 43/60/5
f 2/1/3 6/4/3 8/3/3 3/2/3
f 70/53/4 8/3/4 6/4/4 71/54/4
f 74/55/2 2/48/2 3/47/2 65/56/2
f 6/49/6 2/50/6 74/57/6 71/58/6
f 3/52/5 8/51/5 70/59/5 72/63/5 65/60/5
f 13/1/3 18/4/3 20/3/3 15/2/3
f 64/53/4 20/3/4 18/4/4 63/54/4
f 59/55/2 13/48/2 15/47/2 60/56/2
f 18/49/6 13/50/6 59/57/6 63/58/6
f 15/52/5 20/51/5 64/59/5 60/60/5
f 25/1/3 29/4/3 31/3/3 27/2/3
f 78/53/4 31/3/4 29/4/4 77/54/4
f 66/55/2 25/48/2 27/47/2 76/56/2 69/61/2
f 77/58/6 29/49/6 25/50/6 66/57/6 73/64/6
f 27/52/5 31/51/5 78/59/5 76/60/5
f 38/1/3 42/4/3 44/3/3 40/2/3
f 75/53/4 44/3/4 42/4/4 67/54/4 68/62/4
f 61/55/2 38/48/2 40/47/2 62/56/2
f 42/49/6 38/50/6 61/57/6 67/58/6
f 40/52/5 44/51/5 75/59/5 62/60/5
